<svg width="71" height="7" viewBox="0 0 71 7" fill="none" xmlns="http://www.w3.org/2000/svg">
<path d="M0.671826 0.0101698C1.06707 -0.015883 1.58517 0.0119737 1.97892 0.0502087C2.10232 0.0620673 2.03984 0.115075 2.12502 0.125648C2.29163 0.146258 2.44684 0.120261 2.61148 0.144813C2.66605 0.153209 2.59813 0.237174 2.65534 0.244056C2.96886 0.281163 3.26546 0.259777 3.58306 0.277625C5.14745 0.365685 6.68522 0.397205 8.26875 0.435461C8.79088 0.448004 9.4256 0.524206 9.96491 0.490881C10.0279 0.486916 9.99033 0.413216 10.0023 0.407141C10.1902 0.31415 10.1277 0.462935 10.2504 0.482702C10.7372 0.560754 11.2786 0.567542 11.7472 0.539099C11.9465 0.526782 11.7466 0.380395 11.9473 0.462561C11.9613 0.468112 11.9107 0.546377 11.9654 0.554724C12.0893 0.573498 12.3245 0.559509 12.4206 0.56571C12.6058 0.578057 12.6364 0.577269 12.8116 0.578161C13.051 0.580061 13.3358 0.618966 13.5927 0.601232C13.6475 0.597215 13.5749 0.516985 13.6623 0.503332C13.7499 0.489702 13.9814 0.496505 14.0595 0.515417C14.1376 0.534339 14.1043 0.597399 14.1181 0.611852C14.2318 0.733849 14.4996 0.564884 14.5341 0.560705C15.1624 0.489506 15.7013 0.58576 16.2911 0.585485C16.7388 0.585073 17.2176 0.553296 17.6436 0.557653C18.1512 0.563155 18.5814 0.606631 19.0745 0.599157C19.1265 0.598461 19.0655 0.504129 19.1291 0.503088C19.8044 0.492111 20.475 0.502394 21.1473 0.566076C21.2148 0.572546 21.1279 0.655368 21.1952 0.666784C21.6077 0.734849 22.2603 0.898357 22.5053 0.537756C22.7847 0.551837 23.1239 0.566385 23.3738 0.639074C23.535 0.685858 23.3784 0.776084 23.5764 0.737585C23.6211 0.729007 23.563 0.649991 23.63 0.643102C23.9119 0.614176 24.2199 0.639861 24.4988 0.599035C24.5555 0.590545 24.54 0.519744 24.5561 0.506994C24.6911 0.403741 24.916 0.574425 24.965 0.586828C25.3383 0.679315 25.6109 0.642919 25.9587 0.645178C26.0394 0.645741 25.944 0.550639 26.0216 0.547766C26.4244 0.534136 26.8416 0.54231 27.2359 0.584509C27.3236 0.594124 27.243 0.675134 27.2849 0.683874C27.4697 0.721424 27.5107 0.568417 27.6879 0.601477C27.7253 0.60825 27.7042 0.6776 27.7111 0.685217C27.8177 0.804778 27.9104 0.635368 27.9379 0.631628C28.285 0.580523 28.5069 0.757378 28.8422 0.732336C28.8823 0.729161 28.7918 0.641412 28.9046 0.637853C29.6559 0.61363 30.4504 0.637735 31.1941 0.707922C31.3097 0.718716 31.2271 0.784634 31.2344 0.79276C31.353 0.919728 31.4297 0.749606 31.4674 0.7432C31.7648 0.697082 32.0427 0.839748 32.2447 0.637121C33.5043 0.707439 34.7581 0.593653 36.0073 0.775182C36.0232 0.777285 35.9947 0.86107 36.0264 0.864903C36.4079 0.911948 36.3346 0.781731 36.5871 0.622473C36.6507 0.582482 36.8442 0.77476 36.8613 0.788854C36.9236 0.840791 36.859 0.96544 36.8798 0.975499C37.0526 1.05448 37.0245 0.642259 37.2576 0.642126C37.2649 0.642813 37.2343 0.718688 37.2538 0.726232C37.3146 0.749917 37.3749 0.719767 37.4344 0.745885C37.5705 0.806321 37.619 1.00663 37.8269 0.89005C37.8533 0.87492 37.8131 0.64109 38.0212 0.652136C38.1042 0.656737 38.4714 0.65273 38.5744 0.667883C38.6772 0.683018 38.6066 0.758369 38.6139 0.761632C38.8909 0.861272 38.7859 0.902568 38.9247 1.05008C39.0635 1.19704 39.025 0.846531 39.0816 0.807409C39.1382 0.768397 39.3413 0.850607 39.3913 0.879186C39.4411 0.907777 39.3789 0.955658 39.4233 0.971837C39.7174 1.07755 39.5524 0.797855 39.6493 0.742223C39.8778 0.610497 40.0557 0.870438 40.2649 0.895909C40.3215 0.902788 40.2753 0.843585 40.3257 0.838048C40.5253 0.816904 40.6453 0.898013 40.8724 0.823644C40.9096 0.811525 41.0932 0.655241 41.212 0.769933C41.2288 0.786471 41.181 0.851248 41.2661 0.865758C41.3931 0.887534 41.6221 0.901692 41.7587 0.88004C41.8596 0.86402 41.744 0.757283 41.8709 0.790441C41.9273 0.805246 41.8228 0.867688 41.9288 0.890294C42.0342 0.912893 42.3038 0.91015 42.4063 0.907994C42.5087 0.905791 42.4527 0.824826 42.461 0.819371C42.511 0.788126 42.7075 0.749085 42.7249 0.749181C43.6008 0.739297 44.4085 0.875772 45.2613 0.830602C45.3283 0.827174 45.2837 0.741795 45.2939 0.740392C45.523 0.70462 45.3424 0.931622 45.5024 1.0076C45.4793 0.834345 45.5738 0.865716 45.7352 0.846715C45.8129 0.837418 45.7706 0.770331 45.7777 0.763463C45.893 0.661566 45.9733 0.79318 45.994 0.820104C46.0704 0.919144 46.1535 0.802121 46.2055 0.868321C46.2574 0.934027 46.1379 1.03143 46.2927 1.03019C46.3361 0.968165 46.2211 0.806089 46.3387 0.779821C46.7821 0.680461 47.6097 0.807627 47.9662 0.820836C48.322 0.834035 48.4369 0.822592 48.6442 0.845006C49.0187 0.885533 48.8815 0.765283 49.114 0.710241C49.3472 0.655205 49.2339 0.951079 49.2674 1.01468C49.3003 1.07826 49.3362 1.01281 49.3772 1.04776C49.418 1.08271 49.3296 1.12595 49.4256 1.13907C49.5216 1.15218 49.7841 1.03907 49.8182 0.972569C49.8901 0.831672 49.7718 0.683794 50.0259 0.735753C50.0405 0.738837 49.9931 0.816636 50.049 0.824498C50.4934 0.884391 50.9551 0.888103 51.3989 0.941075C51.4599 0.948481 51.4053 1.03503 51.4409 1.04032C51.8108 1.09568 51.6786 0.949745 51.8813 0.787633C51.8358 1.00337 51.9479 1.13536 52.2287 1.13663C52.3975 1.13747 52.3684 1.04325 52.4775 0.976842C52.5103 0.956823 52.6297 1.02152 52.6514 0.977208C52.7227 0.83236 52.6102 0.670211 52.8997 0.734777C52.9124 0.737845 52.872 0.817133 52.9159 0.821935C53.1995 0.853365 53.2335 0.701856 53.5401 0.683508C53.7804 0.669111 54.2079 0.761499 54.4815 0.776525C54.4758 1.01907 54.7342 0.963534 54.8391 0.7963C55.0167 0.803147 55.2085 0.793693 55.3802 0.816808C55.4393 0.824689 55.4004 0.894913 55.4079 0.902501C55.5221 1.02153 55.5993 0.858831 55.6377 0.852452C56.0531 0.790448 56.3917 0.913761 56.7882 0.793248C56.8022 0.788908 56.825 0.620425 56.931 0.743444C56.9379 0.751924 56.8069 0.82858 56.9935 0.834508C57.18 0.840449 57.5317 0.930768 57.7907 0.852696C57.8534 0.833901 58.0119 0.697128 58.1391 0.803991C58.1561 0.818502 58.1375 0.866823 58.162 0.893712C58.2411 0.979391 58.2843 0.809097 58.3772 0.95377C58.4702 1.09844 58.6636 1.20678 58.9248 1.10697C58.9331 1.10407 58.9949 0.969092 59.0771 0.971226C59.2082 0.974749 59.3943 1.00287 59.5312 1.00199C59.5968 1.00152 59.5548 0.917706 59.5662 0.916173C60.007 0.869207 60.3207 0.943926 60.7929 0.976353C60.8794 0.982464 61.1282 0.868173 61.2957 0.958531C61.4797 1.05745 61.2907 1.46891 61.7136 1.37088C61.8842 1.33167 62.1001 0.809653 62.4067 1.08011C63.0012 1.01309 63.551 1.15151 64.1472 1.05582C64.1741 1.05158 64.2588 0.905889 64.3219 0.907872C64.4154 0.911098 64.4668 0.979192 64.5336 0.983677C64.8136 1.00419 65.0698 0.945929 65.3397 0.954991C65.4422 0.958284 65.4064 1.02869 65.5286 1.03263C65.6508 1.0365 65.7322 0.943782 65.8977 0.98856C66.0228 1.02269 66.1478 1.2122 66.3137 1.23429C66.32 1.04736 66.434 1.05121 66.6366 1.00187C66.6755 0.992292 66.6338 0.927231 66.6522 0.919347C66.7272 0.885814 66.7965 0.939735 66.8677 0.903233C66.885 0.894467 66.8858 0.83063 66.9 0.81986C67.0204 0.725848 67.2187 0.869442 67.2527 0.894444C67.3833 0.989396 67.4443 0.906369 67.5444 0.943761C67.6444 0.981147 67.4949 1.02788 67.6117 1.05057C67.8537 1.0975 68.1647 1.08719 68.4105 1.09012C68.5086 1.0909 68.4417 1.00569 68.4557 1.00382C68.6585 0.982207 68.8636 1.07285 68.9761 0.903111C69.1167 1.34199 69.0984 0.860543 69.3883 0.948399C69.4111 0.955505 69.4402 1.16305 69.3525 1.19352C69.2648 1.22396 69.1319 1.15908 69.0102 1.20658C68.9814 1.21772 68.8164 1.4122 68.7939 1.42398C68.6176 1.51605 68.5926 1.20591 68.5832 1.18888C68.4775 1.00505 68.2758 1.21456 68.2227 1.22904C67.9798 1.29537 67.7734 1.25176 67.5702 1.29911C67.4373 1.32971 67.4243 1.53286 67.32 1.52664C66.9731 1.50609 66.8521 1.22269 66.5252 1.46842C66.4551 1.52083 66.5248 1.74287 66.2736 1.56827C66.2579 1.55726 66.0714 1.39754 65.9637 1.49857C65.9501 1.51131 65.9506 1.57602 65.9327 1.58145C65.8131 1.61662 65.7334 1.56506 65.6031 1.58975C65.4729 1.61445 65.3162 1.65125 65.1675 1.62931C65.0779 1.61618 64.9629 1.49561 64.92 1.4661C64.7988 1.38107 64.6689 1.52048 64.5939 1.41751C64.5182 1.31403 64.6662 1.15687 64.4677 1.09C64.4603 1.25812 64.4435 1.43069 64.4316 1.59976C63.9967 1.59384 63.5687 1.53948 63.1323 1.54691C63.0783 1.548 63.1336 1.63838 63.0756 1.64188C62.8309 1.65624 62.6171 1.59181 62.3634 1.61746C62.1669 1.63767 61.9515 1.73337 61.7461 1.75748C61.6207 1.5651 61.3159 1.63041 61.0945 1.61283C61.0169 1.60675 61.0221 1.55537 60.967 1.53861C60.7589 1.47661 60.8564 1.64662 60.7993 1.67337C60.5546 1.78756 60.5336 1.40276 60.2451 1.41226C60.2298 1.41264 60.0429 1.61775 60.0172 1.63053C59.8536 1.71382 59.9901 1.55913 59.8877 1.54398C59.7009 1.51628 59.571 1.4673 59.3518 1.52738C59.2878 1.54517 59.1345 1.67302 59.0103 1.57413C58.994 1.56118 59.003 1.49338 58.9899 1.48941C58.7519 1.42323 58.7457 1.63626 58.6097 1.70841C58.4737 1.78054 58.2637 1.63348 58.2209 1.5911C58.1091 1.48145 58.3066 1.54424 58.3127 1.53348C58.3838 1.40543 58.2306 1.42748 58.1136 1.41666C58.0966 1.20778 57.9329 1.22032 57.9922 1.40628C57.999 1.4266 58.0901 1.40712 58.1136 1.41666C58.0108 1.6216 57.8309 1.64784 57.6322 1.45633C57.5392 1.36657 57.6271 1.26192 57.3446 1.3002C57.2164 1.31749 57.2659 1.46131 57.1527 1.50052C56.8942 1.58999 56.5583 1.45582 56.2918 1.47696C56.195 1.48464 56.2892 1.56336 56.2231 1.57132C56.0477 1.59269 55.893 1.53362 55.7168 1.56388C55.7008 1.56672 55.7398 1.64913 55.685 1.65018C55.2696 1.65975 54.9079 1.60696 54.4743 1.6055C54.2647 1.60483 53.8901 1.65028 53.673 1.64115C53.2968 1.62579 52.8339 1.50595 52.5125 1.53507C52.3029 1.5537 52.3489 1.63613 52.2591 1.69229C52.0857 1.80116 51.7789 1.60616 51.7376 1.57596C51.7364 1.57496 51.9168 1.55553 51.8205 1.51322C51.7645 1.42505 51.7397 1.57558 51.7376 1.57596C51.7105 1.55645 51.3502 1.53774 51.2786 1.5535C51.2397 1.56211 51.2615 1.64021 51.2412 1.64322C50.7594 1.71311 50.2767 1.73296 49.788 1.69644C49.7794 1.69487 49.7924 1.60751 49.7721 1.60489C49.4892 1.56605 49.3081 1.67291 49.0747 1.73636C48.8414 1.79978 48.6564 1.77854 48.5183 1.62857C48.3423 1.64745 48.0897 1.58116 47.9444 1.54093C47.7991 1.5007 47.7788 1.67074 47.766 1.6741C47.3672 1.7817 47.1366 1.68437 46.7229 1.66922C46.5262 1.66173 46.136 1.68639 45.923 1.70499C45.7546 1.71997 45.6532 1.68012 45.4981 1.7056C45.4771 1.709 45.4983 1.78472 45.4919 1.78763C45.3188 1.87822 45.402 1.69312 45.3663 1.66007C45.2367 1.53985 45.1567 1.47583 44.935 1.53238C44.8838 1.54533 44.7349 1.81184 44.6417 1.82742C44.5205 1.8472 44.5663 1.75167 44.4394 1.77481C44.4285 1.77671 44.4308 1.83564 44.3525 1.83304C43.9889 1.82175 43.5926 1.78746 43.2149 1.79337C43.1633 1.79395 43.2294 1.88742 43.1549 1.8898C42.805 1.90088 42.4216 1.89742 42.0808 1.85367C41.9969 1.84261 42.0495 1.77716 42.0313 1.75772C41.9195 1.64014 41.7609 1.81099 41.7348 1.81424C41.1108 1.89634 40.6332 1.74173 39.9972 1.81534C39.9626 1.81966 39.6961 2.00281 39.5772 1.84574C39.569 1.83528 39.4514 1.67458 39.3474 1.78446C39.3409 1.79133 39.4142 1.87407 39.2863 1.86563C39.1584 1.85722 38.9525 1.91247 38.7767 1.82157C38.7211 1.79293 38.5895 1.63262 38.4234 1.76041C38.4126 1.76933 38.1563 2.05828 38.0648 1.85892C38.05 1.8261 38.0655 1.61513 37.8673 1.7233C37.8294 1.74427 37.8982 1.79133 37.7984 1.82071C37.6456 1.866 37.4431 1.80949 37.2552 1.90347C37.2224 1.92011 37.0829 2.06331 36.9711 1.95462C36.9535 1.9376 36.9868 1.86717 36.9277 1.85929C36.6468 1.82148 36.3526 1.86859 36.0673 1.81986C35.9662 1.80273 36.0179 1.68887 35.9126 1.65836C35.8072 1.62786 35.595 1.59851 35.4848 1.65055C35.3745 1.7026 35.495 1.88407 35.3298 1.89859C34.6118 1.96166 33.9005 1.8552 33.1835 1.83963C33.0771 1.83731 33.1653 1.90224 33.0086 1.90347C32.4308 1.90831 31.4333 1.96919 30.932 1.83121C30.5303 1.72069 31.0358 1.63656 30.7288 1.59159C30.5807 1.57013 30.4205 1.78111 30.3847 1.78775C30.0354 1.85522 29.7927 1.76176 29.4783 1.79044C29.4133 1.79639 29.477 1.8819 29.4218 1.88602C29.233 1.90085 29.0347 1.86268 28.8543 1.86966C28.7734 1.87299 28.7883 1.9383 28.7139 1.93326C28.5357 1.92195 28.3782 1.8945 28.2045 1.83328C28.1887 1.82771 28.2954 1.74646 28.1636 1.74344C27.9503 1.73878 27.6855 1.67839 27.4401 1.74076C27.3673 1.75951 27.3645 1.90878 27.2079 1.8057C27.1751 1.78417 27.217 1.60493 27.0346 1.7598C27.004 1.78553 26.6977 1.99442 26.5474 1.85977C26.5077 1.82434 26.4065 1.67767 26.3189 1.70072C26.3071 1.70439 26.3546 1.78457 26.2821 1.79239C26.0264 1.81856 25.7583 1.81 25.4956 1.83512C25.4255 1.84198 25.53 1.92495 25.4254 1.93253C25.1378 1.9535 24.7789 1.93237 24.4977 1.9064C24.394 1.89667 24.4657 1.82795 24.4581 1.82047C24.3368 1.69882 24.2651 1.86302 24.2248 1.87259C23.9745 1.92992 23.7838 1.85279 23.553 1.8732C23.4893 1.87863 23.5345 1.95692 23.5218 1.9639C23.3903 2.03211 23.4883 1.89151 23.405 1.87601C23.1719 1.83212 22.9119 1.83842 22.6761 1.84842C22.5895 1.85221 22.6869 1.94299 22.6091 1.94534C22.1491 1.96099 21.6708 1.9523 21.2219 1.90225C21.1373 1.89267 21.1905 1.82276 21.1729 1.80679C21.0515 1.69509 20.8735 1.84746 20.8325 1.86197C20.6463 1.92824 20.574 1.86642 20.4096 1.87796C19.6063 1.93541 18.6144 1.89447 17.8562 1.86917C16.8681 1.83662 16.1014 1.77012 15.1591 1.78739C15.0992 1.7884 15.1596 1.88139 15.108 1.88345C14.4415 1.90587 13.7853 1.86953 13.1175 1.89639C13.0627 1.89843 13.1417 1.98659 13.0537 1.99283C12.8733 2.00624 12.6447 2.00145 12.4623 1.9733C12.3733 1.95974 12.4927 1.88409 12.4031 1.87198C12.1946 1.84362 11.9711 1.83734 11.7569 1.85147C11.6657 1.85768 11.8032 1.94784 11.6847 1.94888C10.8776 1.95783 10.085 1.97336 9.26939 1.8566C9.21347 1.84858 9.16441 1.66533 9.04553 1.70047C9.03657 1.75133 9.03706 1.81115 9.03315 1.86551C7.85822 1.89479 6.69529 1.83127 5.51707 1.82144C5.46739 1.82105 5.55324 1.91815 5.45707 1.91788C4.90043 1.91644 4.35989 1.94334 3.79051 1.84683C3.73401 1.8374 3.763 1.66658 3.59651 1.69242C3.56715 1.69713 3.31641 1.71991 3.25158 1.75699C3.24277 1.76258 3.28852 1.84231 3.20772 1.84464C2.73818 1.85674 2.24612 1.83854 1.7774 1.78983C1.70175 1.78181 1.78231 1.69691 1.72843 1.69046C1.34622 1.64539 0.930492 1.70993 0.565278 1.63285C0.320816 1.58094 0.411323 1.43417 0.281419 1.28971C0.263045 1.26932 0.111667 1.26609 0.103839 1.18204C0.0837413 0.970681 0.157064 0.739242 0.126978 0.513952C0.120622 0.465427 -0.0821129 0.517692 0.0379189 0.400427C0.0463044 0.392579 0.193288 0.35366 0.22949 0.31388C0.254695 0.286376 0.209275 0.200894 0.260701 0.165687C0.312123 0.130513 0.368629 0.202169 0.453886 0.160804C0.539106 0.118927 0.501634 0.0216813 0.671826 0.0101698ZM47.2901 1.36112C47.1555 1.27946 47.1356 1.57855 47.2812 1.50699C47.2882 1.50318 47.297 1.36512 47.2901 1.36112ZM63.5712 1.31388C63.3953 1.18195 63.2749 1.37593 63.399 1.47782C63.5231 1.57959 63.6248 1.35387 63.5712 1.31388ZM65.3954 1.21756C65.1898 1.11355 65.1575 1.53768 65.3777 1.45194C65.3905 1.44709 65.4074 1.2236 65.3954 1.21756ZM0.883845 1.24857C0.881988 1.2446 0.773171 1.24073 0.770571 1.24466C0.712628 1.33965 0.930216 1.34733 0.883845 1.24857ZM67.2057 1.11271C67.1415 1.05533 66.9567 1.12156 67.0364 1.19291C67.1006 1.2503 67.2856 1.18407 67.2057 1.11271ZM40.2705 1.0419C40.2684 1.03745 40.1904 1.03343 40.192 1.05863C40.1973 1.13977 40.3058 1.11687 40.2705 1.0419ZM70.2824 1.10782C69.8278 1.09186 69.5522 0.741508 70.0472 0.781041C70.1368 0.788194 69.854 0.892765 69.9681 0.924351C70.1769 0.981896 70.3155 0.761919 70.5286 0.879796C70.5671 0.901371 70.3083 1.10951 70.2816 1.10831C70.2818 1.10815 70.2821 1.10799 70.2824 1.10782ZM47.2126 1.00187C47.2099 0.997911 47.1019 0.994161 47.0993 0.998082C47.0408 1.09304 47.2584 1.10065 47.2126 1.00187ZM35.7183 0.856969C35.7124 0.848541 35.4617 0.840659 35.4536 0.848424C35.3228 1.0037 35.8295 1.0201 35.7183 0.856969ZM54.4858 0.782995C54.6037 0.68747 54.7446 0.676223 54.8386 0.796178C54.7214 0.78981 54.6036 0.788872 54.4858 0.782995Z" fill="#304FFF"/>
<path d="M3.86391 4.08683C4.09445 4.06078 4.39665 4.08863 4.62632 4.12687C4.69829 4.13873 4.66185 4.19174 4.71153 4.20231C4.80871 4.22292 4.89925 4.19692 4.99528 4.22147C5.0271 4.22987 4.98749 4.31383 5.02086 4.32072C5.20373 4.35782 5.37673 4.33644 5.56198 4.35429C6.47447 4.44235 7.37141 4.47387 8.29506 4.51212C8.59961 4.52466 8.96983 4.60087 9.2844 4.56754C9.32112 4.56358 9.29923 4.48988 9.30621 4.4838C9.4158 4.39081 9.37936 4.53959 9.45091 4.55936C9.73489 4.63741 10.0507 4.6442 10.324 4.61576C10.4402 4.60344 10.3237 4.45706 10.4407 4.53922C10.4489 4.54477 10.4193 4.62304 10.4512 4.63138C10.5235 4.65016 10.6607 4.63617 10.7168 4.64237C10.8248 4.65472 10.8426 4.65393 10.9448 4.65482C11.0845 4.65672 11.2506 4.69563 11.4004 4.67789C11.4324 4.67387 11.39 4.59365 11.441 4.57999C11.4921 4.56636 11.6272 4.57316 11.6727 4.59208C11.7182 4.611 11.6988 4.67406 11.7069 4.68851C11.7732 4.81051 11.9294 4.64154 11.9495 4.63737C12.316 4.56617 12.6303 4.66242 12.9743 4.66215C13.2355 4.66173 13.5148 4.62996 13.7633 4.63431C14.0593 4.63982 14.3102 4.68329 14.5979 4.67582C14.6282 4.67512 14.5926 4.58079 14.6297 4.57975C15.0236 4.56877 15.4147 4.57905 15.8069 4.64274C15.8462 4.64921 15.7956 4.73203 15.8348 4.74344C16.0754 4.81151 16.4561 4.97502 16.599 4.61442C16.7619 4.6285 16.9598 4.64305 17.1056 4.71573C17.1996 4.76252 17.1083 4.85274 17.2237 4.81424C17.2498 4.80567 17.2159 4.72665 17.255 4.71976C17.4194 4.69084 17.5991 4.71652 17.7617 4.6757C17.7948 4.66721 17.7858 4.5964 17.7952 4.58365C17.8739 4.4804 18.0051 4.65109 18.0337 4.66349C18.2514 4.75598 18.4104 4.71958 18.6133 4.72184C18.6604 4.7224 18.6047 4.6273 18.65 4.62443C18.8849 4.6108 19.1283 4.61897 19.3583 4.66117C19.4094 4.67078 19.3624 4.75179 19.3868 4.76053C19.4946 4.79808 19.5185 4.64508 19.6219 4.67814C19.6437 4.68491 19.6314 4.75426 19.6354 4.76188C19.6976 4.88144 19.7517 4.71203 19.7677 4.70829C19.9702 4.65718 20.0996 4.83404 20.2952 4.809C20.3186 4.80582 20.2658 4.71807 20.3316 4.71451C20.7698 4.69029 21.2332 4.7144 21.667 4.78458C21.7344 4.79538 21.6863 4.86129 21.6905 4.86942C21.7597 4.99639 21.8044 4.82627 21.8264 4.81986C21.9999 4.77374 22.162 4.91641 22.2798 4.71378C23.0145 4.7841 23.7458 4.67031 24.4745 4.85184C24.4837 4.85395 24.4671 4.93773 24.4856 4.94156C24.7081 4.98861 24.6654 4.85839 24.8127 4.69913C24.8498 4.65914 24.9626 4.85142 24.9726 4.86551C25.0089 4.91745 24.9712 5.0421 24.9834 5.05216C25.0842 5.13114 25.0678 4.71892 25.2037 4.71879C25.208 4.71947 25.1901 4.79535 25.2015 4.80289C25.237 4.82658 25.2722 4.79643 25.3069 4.82255C25.3863 4.88298 25.4145 5.08329 25.5358 4.96671C25.5512 4.95158 25.5277 4.71775 25.6491 4.7288C25.6975 4.7334 25.9118 4.72939 25.9718 4.74454C26.0318 4.75968 25.9906 4.83503 25.9949 4.83829C26.1564 4.93793 26.0952 4.97923 26.1761 5.12674C26.2571 5.2737 26.2346 4.92319 26.2676 4.88407C26.3007 4.84506 26.4192 4.92727 26.4483 4.95585C26.4774 4.98444 26.4411 5.03232 26.4669 5.0485C26.6385 5.15421 26.5422 4.87452 26.5988 4.81888C26.732 4.68716 26.8358 4.9471 26.9578 4.97257C26.9909 4.97945 26.9639 4.92025 26.9933 4.91471C27.1097 4.89356 27.1798 4.97467 27.3122 4.9003C27.3339 4.88819 27.441 4.7319 27.5103 4.84659C27.5201 4.86313 27.4922 4.92791 27.5418 4.94242C27.6159 4.96419 27.7495 4.97835 27.8292 4.9567C27.888 4.94068 27.8206 4.83394 27.8946 4.8671C27.9275 4.88191 27.8665 4.94435 27.9283 4.96695C27.9898 4.98955 28.1471 4.98681 28.2069 4.98465C28.2666 4.98245 28.2339 4.90149 28.2388 4.89603C28.268 4.86479 28.3826 4.82574 28.3927 4.82584C28.9036 4.81596 29.3748 4.95243 29.8722 4.90726C29.9112 4.90383 29.8852 4.81846 29.8912 4.81705C30.0248 4.78128 29.9194 5.00828 30.0128 5.08426C29.9993 4.91101 30.0544 4.94238 30.1486 4.92338C30.1939 4.91408 30.1692 4.84699 30.1734 4.84012C30.2406 4.73823 30.2875 4.86984 30.2995 4.89676C30.3441 4.9958 30.3926 4.87878 30.4229 4.94498C30.4532 5.01069 30.3835 5.10809 30.4737 5.10685C30.499 5.04483 30.432 4.88275 30.5006 4.85648C30.7592 4.75712 31.2419 4.88429 31.4499 4.8975C31.6574 4.91069 31.7244 4.89925 31.8454 4.92167C32.0638 4.96219 31.9838 4.84194 32.1194 4.7869C32.2554 4.73187 32.1893 5.02774 32.2088 5.09134C32.228 5.15492 32.249 5.08947 32.2729 5.12442C32.2967 5.15937 32.2451 5.20261 32.3011 5.21573C32.3571 5.22884 32.5102 5.11574 32.5301 5.04923C32.5721 4.90833 32.5031 4.76045 32.6512 4.81241C32.6598 4.8155 32.6321 4.8933 32.6647 4.90116C32.9239 4.96105 33.1932 4.96476 33.4521 5.01774C33.4877 5.02514 33.4559 5.11169 33.4766 5.11698C33.6924 5.17234 33.6152 5.0264 33.7335 4.86429C33.7069 5.08003 33.7723 5.21202 33.9361 5.21329C34.0345 5.21413 34.0176 5.11991 34.0813 5.0535C34.1004 5.03348 34.17 5.09818 34.1827 5.05387C34.2243 4.90902 34.1587 4.74687 34.3275 4.81144C34.3349 4.81451 34.3113 4.89379 34.3369 4.89859C34.5024 4.93002 34.5222 4.77852 34.701 4.76017C34.8412 4.74577 35.0905 4.83816 35.2501 4.85318C35.2468 5.09573 35.3976 5.04019 35.4587 4.87296C35.5623 4.87981 35.6742 4.87035 35.7743 4.89347C35.8088 4.90135 35.7861 4.97157 35.7905 4.97916C35.8571 5.09819 35.9022 4.93549 35.9245 4.92911C36.1669 4.86711 36.3643 4.99042 36.5956 4.86991C36.6038 4.86557 36.6171 4.69709 36.6789 4.8201C36.6829 4.82858 36.6065 4.90524 36.7153 4.91117C36.8241 4.91711 37.0293 5.00743 37.1803 4.92936C37.2169 4.91056 37.3094 4.77379 37.3836 4.88065C37.3935 4.89516 37.3826 4.94348 37.3969 4.97037C37.443 5.05605 37.4682 4.88576 37.5225 5.03043C37.5767 5.1751 37.6895 5.28344 37.8418 5.18363C37.8467 5.18073 37.8827 5.04575 37.9307 5.04789C38.0071 5.05141 38.1157 5.07953 38.1956 5.07865C38.2338 5.07818 38.2093 4.99437 38.216 4.99283C38.473 4.94587 38.656 5.02059 38.9314 5.05301C38.9819 5.05912 39.127 4.94483 39.2248 5.03519C39.3321 5.13411 39.2218 5.54557 39.4685 5.44754C39.568 5.40833 39.694 4.88631 39.8728 5.15677C40.2195 5.08975 40.5402 5.22818 40.888 5.13248C40.9036 5.12824 40.9531 4.98255 40.9898 4.98453C41.0444 4.98776 41.0744 5.05585 41.1134 5.06034C41.2767 5.08085 41.4261 5.02259 41.5835 5.03165C41.6433 5.03494 41.6224 5.10535 41.6937 5.10929C41.765 5.11316 41.8125 5.02044 41.909 5.06522C41.982 5.09935 42.0549 5.28886 42.1517 5.31095C42.1554 5.12402 42.2218 5.12787 42.34 5.07853C42.3627 5.06895 42.3383 5.00389 42.3491 4.99601C42.3928 4.96247 42.4333 5.0164 42.4748 4.97989C42.4849 4.97113 42.4854 4.90729 42.4936 4.89652C42.5638 4.80251 42.6795 4.9461 42.6994 4.9711C42.7755 5.06606 42.8111 4.98303 42.8695 5.02042C42.9278 5.05781 42.8406 5.10454 42.9087 5.12723C43.0499 5.17416 43.2313 5.16385 43.3747 5.16678C43.4319 5.16756 43.3929 5.08235 43.401 5.08048C43.5193 5.05887 43.639 5.14951 43.7046 4.97977C43.7866 5.41865 43.7759 4.9372 43.945 5.02506C43.9583 5.03217 43.9753 5.23971 43.9241 5.27018C43.873 5.30062 43.7954 5.23574 43.7245 5.28324C43.7077 5.29438 43.6115 5.48886 43.5983 5.50064C43.4955 5.59271 43.4809 5.28257 43.4754 5.26554C43.4137 5.08171 43.2961 5.29122 43.2651 5.3057C43.1235 5.37203 43.0031 5.32842 42.8846 5.37577C42.8071 5.40637 42.7995 5.60952 42.7386 5.6033C42.5363 5.58275 42.4657 5.29935 42.275 5.54508C42.2341 5.59749 42.2748 5.81953 42.1283 5.64493C42.1191 5.63392 42.0103 5.4742 41.9475 5.57523C41.9396 5.58797 41.9398 5.65268 41.9294 5.65811C41.8597 5.69328 41.8132 5.64172 41.7372 5.66641C41.6612 5.69111 41.5699 5.72791 41.4831 5.70597C41.4308 5.69284 41.3637 5.57228 41.3387 5.54276C41.2681 5.45773 41.1923 5.59714 41.1485 5.49417C41.1044 5.39069 41.1907 5.23353 41.0749 5.16666C41.0706 5.33478 41.0608 5.50735 41.0539 5.67642C40.8002 5.67051 40.5506 5.61614 40.296 5.62357C40.2645 5.62466 40.2967 5.71504 40.2629 5.71854C40.1202 5.7329 39.9955 5.66847 39.8475 5.69412C39.7329 5.71433 39.6073 5.81003 39.4875 5.83414C39.4143 5.64176 39.2365 5.70707 39.1074 5.68949C39.0621 5.68341 39.0652 5.63203 39.033 5.61527C38.9116 5.55327 38.9685 5.72328 38.9352 5.75003C38.7925 5.86422 38.7802 5.47942 38.6119 5.48893C38.603 5.4893 38.494 5.69441 38.479 5.70719C38.3836 5.79048 38.4632 5.63579 38.4035 5.62064C38.2945 5.59294 38.2188 5.54396 38.0909 5.60404C38.0536 5.62183 37.9641 5.74968 37.8917 5.65079C37.8822 5.63784 37.8875 5.57004 37.8798 5.56607C37.741 5.49989 37.7374 5.71292 37.658 5.78507C37.5787 5.8572 37.4562 5.71014 37.4313 5.66776C37.366 5.55811 37.4813 5.6209 37.4848 5.61014C37.5263 5.48209 37.4369 5.50414 37.3687 5.49332C37.3588 5.28444 37.2633 5.29698 37.2979 5.48294C37.3018 5.50326 37.3549 5.48378 37.3687 5.49332C37.3087 5.69826 37.2038 5.7245 37.0879 5.53299C37.0336 5.44323 37.0849 5.33858 36.9201 5.37686C36.8453 5.39415 36.8742 5.53797 36.8082 5.57718C36.6574 5.66665 36.4615 5.53248 36.306 5.55362C36.2496 5.5613 36.3046 5.64002 36.266 5.64798C36.1637 5.66935 36.0734 5.61028 35.9707 5.64054C35.9613 5.64338 35.9841 5.72579 35.9521 5.72684C35.7098 5.73641 35.4989 5.68362 35.2459 5.68216C35.1237 5.68149 34.9052 5.72694 34.7785 5.71781C34.5591 5.70245 34.2891 5.58262 34.1017 5.61173C33.9794 5.63036 34.0062 5.71279 33.9538 5.76895C33.8527 5.87782 33.6738 5.68282 33.6497 5.65262C33.649 5.65162 33.7542 5.63219 33.698 5.58988C33.6654 5.50171 33.6509 5.65224 33.6497 5.65262C33.6339 5.63311 33.4237 5.6144 33.382 5.63016C33.3593 5.63877 33.372 5.71687 33.3601 5.71988C33.0791 5.78977 32.7976 5.80962 32.5125 5.7731C32.5075 5.77153 32.5151 5.68417 32.5033 5.68155C32.3382 5.64271 32.2326 5.74957 32.0965 5.81302C31.9604 5.87644 31.8525 5.8552 31.7719 5.70523C31.6692 5.72411 31.5219 5.65782 31.4372 5.61759C31.3524 5.57736 31.3406 5.7474 31.3331 5.75077C31.1005 5.85836 30.966 5.76103 30.7247 5.74588C30.6099 5.73839 30.3823 5.76305 30.2581 5.78165C30.1599 5.79663 30.1008 5.75678 30.0103 5.78226C29.9981 5.78566 30.0104 5.86138 30.0067 5.86429C29.9057 5.95488 29.9542 5.76978 29.9334 5.73673C29.8578 5.61651 29.8111 5.55249 29.6818 5.60904C29.652 5.62199 29.5651 5.8885 29.5108 5.90408C29.4401 5.92386 29.4668 5.82833 29.3927 5.85147C29.3864 5.85337 29.3877 5.9123 29.3421 5.9097C29.13 5.89841 28.8989 5.86412 28.6785 5.87003C28.6484 5.87061 28.687 5.96408 28.6435 5.96646C28.4395 5.97754 28.2158 5.97408 28.017 5.93033C27.9681 5.91927 27.9988 5.85382 27.9881 5.83438C27.9229 5.7168 27.8305 5.88765 27.8152 5.8909C27.4512 5.973 27.1727 5.81839 26.8017 5.892C26.7815 5.89632 26.6261 6.07947 26.5567 5.9224C26.552 5.91194 26.4834 5.75124 26.4227 5.86112C26.4189 5.86799 26.4617 5.95073 26.3871 5.94229C26.3125 5.93388 26.1924 5.98913 26.0898 5.89823C26.0573 5.86959 25.9806 5.70928 25.8838 5.83707C25.8775 5.84599 25.7279 6.13494 25.6746 5.93558C25.6659 5.90276 25.675 5.69179 25.5594 5.79996C25.5373 5.82093 25.5774 5.86799 25.5192 5.89737C25.43 5.94266 25.3119 5.88615 25.2023 5.98013C25.1832 5.99677 25.1019 6.13997 25.0366 6.03128C25.0264 6.01426 25.0458 5.94383 25.0113 5.93595C24.8475 5.89814 24.6758 5.94525 24.5095 5.89652C24.4505 5.87939 24.4806 5.76553 24.4192 5.73502C24.3578 5.70452 24.234 5.67517 24.1697 5.72721C24.1054 5.77926 24.1756 5.96073 24.0793 5.97525C23.6605 6.03832 23.2456 5.93186 22.8274 5.91629C22.7654 5.91397 22.8168 5.9789 22.7254 5.98013C22.3884 5.98497 21.8066 6.04585 21.5141 5.90787C21.2798 5.79735 21.5747 5.71322 21.3956 5.66825C21.3092 5.64679 21.2158 5.85777 21.1949 5.86441C20.9912 5.93188 20.8496 5.83842 20.6662 5.8671C20.6283 5.87305 20.6655 5.95856 20.6332 5.96268C20.5231 5.97751 20.4074 5.93934 20.3023 5.94632C20.2551 5.94965 20.2637 6.01496 20.2203 6.00992C20.1164 5.99861 20.0245 5.97116 19.9232 5.90994C19.914 5.90437 19.9763 5.82312 19.8994 5.8201C19.775 5.81544 19.6205 5.75506 19.4774 5.81742C19.4349 5.83617 19.4332 5.98544 19.3419 5.88236C19.3228 5.86083 19.3472 5.68159 19.2409 5.83646C19.223 5.86219 19.0443 6.07108 18.9567 5.93643C18.9335 5.901 18.8745 5.75433 18.8234 5.77738C18.8165 5.78105 18.8442 5.86123 18.8019 5.86905C18.6528 5.89522 18.4964 5.88666 18.3432 5.91178C18.3023 5.91864 18.3632 6.00161 18.3022 6.00919C18.1345 6.03016 17.9251 6.00903 17.7611 5.98306C17.7006 5.97333 17.7424 5.90461 17.738 5.89713C17.6673 5.77548 17.6254 5.93968 17.602 5.94925C17.4559 6.00658 17.3447 5.92945 17.2101 5.94986C17.1729 5.95529 17.1993 6.03358 17.1919 6.04056C17.1152 6.10877 17.1723 5.96817 17.1238 5.95267C16.9878 5.90878 16.8362 5.91508 16.6986 5.92508C16.6481 5.92887 16.7049 6.01965 16.6596 6.022C16.3912 6.03765 16.1123 6.02896 15.8504 5.97891C15.8011 5.96933 15.8321 5.89942 15.8218 5.88346C15.751 5.77175 15.6472 5.92412 15.6233 5.93863C15.5147 6.0049 15.4725 5.94308 15.3766 5.95462C14.908 6.01207 14.3295 5.97113 13.8872 5.94583C13.3109 5.91328 12.8637 5.84678 12.3141 5.86405C12.2792 5.86506 12.3144 5.95805 12.2843 5.96012C11.8955 5.98253 11.5128 5.94619 11.1232 5.97305C11.0913 5.97509 11.1374 6.06325 11.0861 6.06949C10.9808 6.0829 10.8475 6.07811 10.7411 6.04996C10.6892 6.0364 10.7588 5.96075 10.7066 5.94864C10.5849 5.92028 10.4546 5.914 10.3296 5.92813C10.2764 5.93434 10.3567 6.0245 10.2875 6.02554C9.81678 6.03449 9.35444 6.05002 8.87871 5.93326C8.8461 5.92524 8.81748 5.74199 8.74814 5.77713C8.74292 5.82799 8.7432 5.88781 8.74092 5.94217C8.05561 5.97145 7.37729 5.90793 6.69005 5.8981C6.66108 5.89771 6.71115 5.99481 6.65506 5.99454C6.33038 5.9931 6.01509 6.02 5.68298 5.92349C5.65003 5.91406 5.66694 5.74324 5.56983 5.76908C5.5527 5.77379 5.40645 5.79657 5.36863 5.83365C5.3635 5.83924 5.39018 5.91897 5.34305 5.9213C5.06918 5.9334 4.78217 5.9152 4.50877 5.86649C4.46464 5.85847 4.51163 5.77357 4.48021 5.76712C4.25727 5.72205 4.01479 5.78659 3.80176 5.70951C3.65917 5.6576 3.71196 5.51083 3.63619 5.36637C3.62548 5.34598 3.53718 5.34275 3.53261 5.2587C3.52089 5.04734 3.56366 4.8159 3.54611 4.59061C3.5424 4.54209 3.42415 4.59435 3.49416 4.47709C3.49905 4.46924 3.58479 4.43032 3.6059 4.39054C3.62061 4.36304 3.59411 4.27755 3.62411 4.24235C3.6541 4.20717 3.68706 4.27883 3.73679 4.23746C3.7865 4.19559 3.76464 4.09834 3.86391 4.08683ZM31.0555 5.43778C30.977 5.35612 30.9654 5.65521 31.0503 5.58365C31.0544 5.57984 31.0595 5.44178 31.0555 5.43778ZM40.552 5.39054C40.4494 5.25862 40.3792 5.45259 40.4515 5.55448C40.5239 5.65625 40.5833 5.43053 40.552 5.39054ZM41.616 5.29422C41.4961 5.19021 41.4772 5.61434 41.6057 5.5286C41.6131 5.52375 41.623 5.30026 41.616 5.29422ZM3.98758 5.32523C3.98649 5.32126 3.92302 5.31739 3.92151 5.32132C3.88771 5.41631 4.01462 5.42399 3.98758 5.32523ZM42.6719 5.18937C42.6345 5.13199 42.5267 5.19822 42.5732 5.26957C42.6106 5.32696 42.7185 5.26073 42.6719 5.18937ZM26.9611 5.11856C26.9599 5.11411 26.9144 5.11009 26.9153 5.13529C26.9184 5.21643 26.9817 5.19353 26.9611 5.11856ZM44.4665 5.18448C44.2014 5.16852 44.0406 4.81817 44.3293 4.8577C44.3816 4.86485 44.2167 4.96943 44.2832 5.00101C44.405 5.05856 44.4858 4.83858 44.6101 4.95646C44.6326 4.97803 44.4816 5.18617 44.466 5.18497C44.4662 5.18481 44.4663 5.18465 44.4665 5.18448ZM31.0103 5.07853C31.0087 5.07457 30.9457 5.07082 30.9442 5.07474C30.9101 5.1697 31.037 5.17731 31.0103 5.07853ZM24.3059 4.93363C24.3024 4.9252 24.1562 4.91732 24.1515 4.92508C24.0752 5.08036 24.3708 5.09676 24.3059 4.93363ZM35.2527 4.85965C35.3214 4.76413 35.4036 4.75288 35.4584 4.87284C35.3901 4.86647 35.3213 4.86553 35.2527 4.85965Z" fill="#304FFF"/>
</svg>
